<?xml version="1.0" standalone="no"?>
<!DOCTYPE svg PUBLIC "-//W3C//DTD SVG 20010904//EN"
 "http://www.w3.org/TR/2001/REC-SVG-20010904/DTD/svg10.dtd">
<svg version="1.0" xmlns="http://www.w3.org/2000/svg"
 width="304.000000pt" height="97.000000pt" viewBox="0 0 304.000000 97.000000"
 preserveAspectRatio="xMidYMid meet">

<g transform="translate(0.000000,97.000000) scale(0.100000,-0.100000)"
fill="#000000" stroke="none">
<path d="M40 590 l0 -280 45 0 45 0 0 128 c0 101 4 134 18 162 32 66 100 73
122 14 6 -14 10 -88 10 -165 l0 -139 45 0 45 0 0 158 c0 86 -5 174 -11 195
-13 48 -57 77 -117 77 -37 0 -50 -6 -78 -34 l-34 -34 0 99 0 99 -45 0 -45 0 0
-280z"/>
<path d="M390 820 l0 -50 45 0 45 0 0 50 0 50 -45 0 -45 0 0 -50z"/>
<path d="M673 720 c-17 -10 -39 -32 -47 -47 l-15 -28 -1 43 0 42 -40 0 -40 0
0 -210 0 -210 45 0 45 0 0 115 c0 144 12 180 70 202 39 16 40 17 40 65 0 54
-8 58 -57 28z"/>
<path d="M390 520 l0 -210 45 0 45 0 0 210 0 210 -45 0 -45 0 0 -210z"/>
<path d="M845 711 c-66 -40 -95 -100 -95 -193 0 -164 120 -259 253 -200 143
63 153 314 16 391 -48 27 -132 28 -174 2z m113 -62 c40 -14 57 -56 57 -139 0
-75 -20 -116 -60 -126 -68 -17 -108 31 -109 131 0 69 18 114 54 132 14 7 25
13 26 13 1 0 15 -5 32 -11z"/>
<path d="M1160 690 l0 -40 80 0 c44 0 80 -3 80 -6 0 -3 -40 -63 -90 -134 -74
-106 -90 -135 -90 -165 0 -34 2 -37 23 -31 121 31 158 31 255 1 20 -7 22 -4
22 28 l0 36 -96 3 -95 3 95 136 c79 112 96 143 96 173 l0 36 -140 0 -140 0 0
-40z"/>
<path d="M1555 711 c-66 -40 -95 -100 -95 -193 0 -164 120 -259 253 -200 143
63 153 314 16 391 -48 27 -132 28 -174 2z m113 -62 c40 -14 57 -56 57 -139 0
-75 -20 -116 -60 -126 -68 -17 -108 31 -109 131 0 69 18 114 54 132 14 7 25
13 26 13 1 0 15 -5 32 -11z"/>
<path d="M1850 520 l0 -210 44 0 44 0 4 138 c4 149 11 173 60 193 23 9 32 8
52 -4 30 -20 36 -53 36 -203 l0 -124 46 0 46 0 -4 173 c-2 144 -6 176 -21 198
-22 33 -57 49 -109 49 -35 0 -47 -6 -80 -40 l-38 -41 0 41 0 40 -40 0 -40 0 0
-210z"/>
<path d="M2230 415 c0 -51 -3 -65 -15 -65 -8 0 -15 -9 -15 -21 0 -17 5 -20 33
-17 31 3 32 5 35 51 2 33 7 47 18 47 10 0 14 -13 14 -50 0 -37 4 -50 14 -50 8
0 18 4 21 10 4 6 12 6 24 -2 25 -15 72 -2 78 22 5 19 7 18 25 -5 24 -31 52
-32 72 -3 l16 22 0 -22 c0 -13 6 -22 15 -22 8 0 15 9 15 19 0 23 -45 37 -66
21 -18 -16 -34 -4 -34 26 0 27 28 44 40 24 13 -22 32 -2 19 21 -15 28 -69 22
-85 -9 -13 -26 -14 -27 -55 -18 -17 3 -28 10 -24 16 3 6 18 7 32 4 19 -5 24
-3 21 7 -7 20 -57 23 -78 4 -16 -14 -18 -14 -23 0 -4 8 -18 15 -32 15 -18 0
-25 5 -25 20 0 13 -7 20 -20 20 -18 0 -20 -7 -20 -65z m180 -67 c0 -9 -17 -10
-47 -2 -13 4 -23 14 -23 24 0 16 2 16 35 1 19 -9 34 -19 35 -23z"/>
<path d="M2872 468 c6 -18 28 -21 28 -4 0 9 -7 16 -16 16 -9 0 -14 -5 -12 -12z"/>
<path d="M2613 433 c-14 -5 -18 -33 -5 -33 4 0 13 5 19 11 14 14 47 4 38 -11
-3 -5 -17 -10 -29 -10 -45 0 -61 -50 -24 -74 13 -8 23 -8 38 2 12 7 20 8 20 2
0 -5 7 -10 15 -10 8 0 15 9 15 20 l0 20 20 -20 c25 -25 56 -26 70 -1 13 26 13
31 -5 31 -8 0 -15 -4 -15 -10 0 -5 -7 -10 -15 -10 -10 0 -15 11 -15 35 0 36
15 46 38 23 9 -9 13 -7 18 5 9 24 -4 37 -37 37 -18 0 -33 -7 -41 -19 -12 -20
-12 -20 -26 0 -12 18 -50 24 -79 12z m50 -78 c-6 -17 -29 -20 -38 -6 -6 11 25
32 37 25 4 -3 5 -11 1 -19z"/>
<path d="M2870 374 c0 -52 -4 -70 -17 -80 -17 -12 -17 -13 0 -19 38 -15 47 0
47 85 0 64 -3 80 -15 80 -12 0 -15 -14 -15 -66z"/>
<path d="M2910 353 c0 -67 3 -83 15 -83 9 0 15 9 15 24 0 19 4 22 23 19 30 -6
49 18 49 62 0 49 -16 64 -63 62 l-39 -1 0 -83z m75 38 c8 -26 -5 -53 -24 -49
-10 2 -17 15 -19 36 -3 26 0 32 17 32 11 0 22 -8 26 -19z"/>
<path d="M2810 330 c0 -11 7 -20 15 -20 8 0 15 9 15 20 0 11 -7 20 -15 20 -8
0 -15 -9 -15 -20z"/>
<path d="M1161 231 c-14 -3 -26 -12 -29 -19 -3 -9 9 -11 50 -6 38 4 58 2 72
-9 20 -14 19 -15 -2 -73 -23 -62 -21 -80 3 -48 30 38 44 73 47 115 l3 44 -60
2 c-33 1 -71 -2 -84 -6z"/>
<path d="M314 219 c-2 -4 18 -23 44 -42 171 -126 387 -180 569 -143 113 23
176 44 236 80 52 32 77 65 41 53 -206 -67 -225 -70 -379 -71 -136 -1 -160 2
-250 28 -55 15 -135 45 -178 65 -43 21 -80 34 -83 30z"/>
</g>
</svg>
